<svg width="35" height="36" viewBox="0 0 35 36" fill="none" xmlns="http://www.w3.org/2000/svg">
<g clip-path="url(#clip0_52_222)">
<path d="M12.0186 24.0011C12.1509 24.0011 32.7868 2.69671 34.0434 1.26276L34.771 0.443359H27.7601H20.7491L16.5823 4.7452C14.2674 7.13512 12.3493 9.11532 12.2831 9.18362C12.2831 9.25191 12.1155 9.24989 12.0847 9.3202V9.86644V16.6536C12.0847 23.6184 11.8863 24.0011 12.0186 24.0011Z" fill="#FF2020"/>
<path d="M7.16787 35.1634H14.27L16.3743 33.0408C17.558 31.9131 19.465 29.9895 20.7145 28.7955L22.8846 26.6066V19.4427C22.8846 12.5441 22.8846 12.2788 22.7531 12.2788C22.6216 12.2788 0.0657604 34.8981 0 35.0971C0 35.1634 1.24945 35.1634 7.16787 35.1634Z" fill="#3E9E11"/>
</g>
<defs>
<clipPath id="clip0_52_222">
<rect width="35" height="35" fill="white" transform="translate(0 0.5)"/>
</clipPath>
</defs>
</svg>
